<svg width="141" height="40" viewBox="0 0 141 40" fill="none" xmlns="http://www.w3.org/2000/svg">
<path d="M8.63974 17.6742C8.5886 17.1586 8.36914 16.7581 7.98136 16.4725C7.59357 16.187 7.06729 16.0443 6.40252 16.0443C5.95082 16.0443 5.56942 16.1082 5.25835 16.236C4.94727 16.3596 4.70863 16.5322 4.54244 16.7538C4.3805 16.9754 4.29954 17.2268 4.29954 17.5081C4.29102 17.7424 4.34002 17.947 4.44656 18.1217C4.55735 18.2964 4.70863 18.4477 4.90039 18.5755C5.09215 18.6991 5.31374 18.8078 5.56516 18.9015C5.81658 18.991 6.08505 19.0677 6.37056 19.1316L7.5467 19.4129C8.11772 19.5407 8.64187 19.7112 9.11914 19.9242C9.59641 20.1373 10.0098 20.3994 10.3592 20.7105C10.7086 21.0216 10.9792 21.388 11.171 21.8099C11.367 22.2318 11.4672 22.7154 11.4714 23.2609C11.4672 24.062 11.2626 24.7566 10.8578 25.3447C10.4572 25.9285 9.87766 26.3823 9.11914 26.7062C8.36488 27.0258 7.45508 27.1856 6.38974 27.1856C5.33292 27.1856 4.41246 27.0237 3.62837 26.6998C2.84854 26.376 2.23917 25.8966 1.80025 25.2616C1.36559 24.6224 1.13761 23.8319 1.1163 22.8902H3.79457C3.8244 23.3291 3.95011 23.6956 4.1717 23.9896C4.39755 24.2794 4.69798 24.4988 5.07298 24.648C5.45224 24.7929 5.8805 24.8653 6.35778 24.8653C6.82653 24.8653 7.23349 24.7971 7.57866 24.6608C7.92809 24.5244 8.19869 24.3348 8.39045 24.0919C8.58221 23.849 8.67809 23.5698 8.67809 23.2545C8.67809 22.9605 8.59073 22.7133 8.41602 22.513C8.24556 22.3127 7.99414 22.1423 7.66175 22.0017C7.33363 21.861 6.93093 21.7332 6.45366 21.6181L5.02823 21.2602C3.92454 20.9917 3.05309 20.572 2.41388 20.001C1.77468 19.4299 1.45721 18.6608 1.46147 17.6934C1.45721 16.9008 1.66815 16.2083 2.09428 15.616C2.52468 15.0237 3.11488 14.5613 3.86488 14.2289C4.61488 13.8966 5.46715 13.7304 6.4217 13.7304C7.39329 13.7304 8.2413 13.8966 8.96573 14.2289C9.69443 14.5613 10.2612 15.0237 10.666 15.616C11.0708 16.2083 11.2797 16.8944 11.2924 17.6742H8.63974ZM17.7564 27.192C16.7464 27.192 15.8771 26.9875 15.1484 26.5784C14.424 26.165 13.8658 25.5812 13.4737 24.8269C13.0817 24.0684 12.8857 23.1714 12.8857 22.1359C12.8857 21.126 13.0817 20.2396 13.4737 19.4768C13.8658 18.714 14.4176 18.1196 15.1293 17.6934C15.8452 17.2673 16.6847 17.0542 17.6477 17.0542C18.2955 17.0542 18.8984 17.1586 19.4567 17.3674C20.0192 17.572 20.5092 17.8809 20.9268 18.2943C21.3487 18.7076 21.6768 19.2275 21.9112 19.8539C22.1456 20.4761 22.2628 21.2048 22.2628 22.04V22.7879H13.9723V21.1004H19.6996C19.6996 20.7083 19.6143 20.361 19.4439 20.0585C19.2734 19.7559 19.0369 19.5194 18.7344 19.349C18.4361 19.1742 18.0888 19.0869 17.6925 19.0869C17.2791 19.0869 16.9126 19.1828 16.593 19.3745C16.2777 19.562 16.0305 19.8156 15.8516 20.1352C15.6726 20.4505 15.581 20.8021 15.5767 21.1899V22.7943C15.5767 23.2801 15.6662 23.6998 15.8452 24.0535C16.0284 24.4072 16.2862 24.6799 16.6186 24.8717C16.951 25.0635 17.3452 25.1593 17.8011 25.1593C18.1037 25.1593 18.3807 25.1167 18.6321 25.0315C18.8835 24.9463 19.0987 24.8184 19.2777 24.648C19.4567 24.4775 19.593 24.2687 19.6868 24.0216L22.2053 24.1877C22.0774 24.7929 21.8153 25.3213 21.419 25.773C21.027 26.2204 20.5199 26.5698 19.8977 26.8213C19.2798 27.0684 18.5661 27.192 17.7564 27.192ZM28.5142 27.192C27.5043 27.192 26.6349 26.9875 25.9062 26.5784C25.1818 26.165 24.6236 25.5812 24.2315 24.8269C23.8395 24.0684 23.6435 23.1714 23.6435 22.1359C23.6435 21.126 23.8395 20.2396 24.2315 19.4768C24.6236 18.714 25.1754 18.1196 25.8871 17.6934C26.603 17.2673 27.4425 17.0542 28.4055 17.0542C29.0533 17.0542 29.6563 17.1586 30.2145 17.3674C30.777 17.572 31.267 17.8809 31.6847 18.2943C32.1065 18.7076 32.4347 19.2275 32.669 19.8539C32.9034 20.4761 33.0206 21.2048 33.0206 22.04V22.7879H24.7301V21.1004H30.4574C30.4574 20.7083 30.3722 20.361 30.2017 20.0585C30.0313 19.7559 29.7947 19.5194 29.4922 19.349C29.1939 19.1742 28.8466 19.0869 28.4503 19.0869C28.0369 19.0869 27.6705 19.1828 27.3509 19.3745C27.0355 19.562 26.7884 19.8156 26.6094 20.1352C26.4304 20.4505 26.3388 20.8021 26.3345 21.1899V22.7943C26.3345 23.2801 26.424 23.6998 26.603 24.0535C26.7862 24.4072 27.044 24.6799 27.3764 24.8717C27.7088 25.0635 28.103 25.1593 28.5589 25.1593C28.8615 25.1593 29.1385 25.1167 29.3899 25.0315C29.6413 24.9463 29.8565 24.8184 30.0355 24.648C30.2145 24.4775 30.3509 24.2687 30.4446 24.0216L32.9631 24.1877C32.8352 24.7929 32.5732 25.3213 32.1768 25.773C31.7848 26.2204 31.2777 26.5698 30.6555 26.8213C30.0376 27.0684 29.3239 27.192 28.5142 27.192ZM38.9636 27.0002V17.1821H41.5588V18.9143H41.6738C41.8784 18.339 42.2193 17.8852 42.6966 17.5528C43.1738 17.2204 43.7449 17.0542 44.4096 17.0542C45.0829 17.0542 45.6561 17.2225 46.1291 17.5592C46.6021 17.8916 46.9174 18.3433 47.0751 18.9143H47.1774C47.3777 18.3518 47.7399 17.9022 48.264 17.5656C48.7924 17.2247 49.4167 17.0542 50.1369 17.0542C51.0531 17.0542 51.7967 17.3461 52.3677 17.9299C52.943 18.5095 53.2306 19.3319 53.2306 20.3973V27.0002H50.514V20.9342C50.514 20.3887 50.3691 19.9796 50.0794 19.7069C49.7896 19.4342 49.4274 19.2978 48.9927 19.2978C48.4984 19.2978 48.1127 19.4555 47.8358 19.7708C47.5588 20.0819 47.4203 20.4931 47.4203 21.0045V27.0002H44.7804V20.8767C44.7804 20.3951 44.6419 20.0116 44.3649 19.7261C44.0922 19.4406 43.7321 19.2978 43.2846 19.2978C42.9821 19.2978 42.7093 19.3745 42.4664 19.5279C42.2278 19.6771 42.0382 19.888 41.8975 20.1608C41.7569 20.4292 41.6866 20.7446 41.6866 21.1068V27.0002H38.9636ZM59.8176 27.192C58.8248 27.192 57.9661 26.9811 57.2417 26.5592C56.5215 26.1331 55.9654 25.5407 55.5733 24.7822C55.1813 24.0194 54.9853 23.1352 54.9853 22.1295C54.9853 21.1153 55.1813 20.2289 55.5733 19.4704C55.9654 18.7076 56.5215 18.1153 57.2417 17.6934C57.9661 17.2673 58.8248 17.0542 59.8176 17.0542C60.8105 17.0542 61.6671 17.2673 62.3873 17.6934C63.1117 18.1153 63.6699 18.7076 64.062 19.4704C64.454 20.2289 64.65 21.1153 64.65 22.1295C64.65 23.1352 64.454 24.0194 64.062 24.7822C63.6699 25.5407 63.1117 26.1331 62.3873 26.5592C61.6671 26.9811 60.8105 27.192 59.8176 27.192ZM59.8304 25.0826C60.2821 25.0826 60.6593 24.9548 60.9618 24.6991C61.2644 24.4392 61.4924 24.0855 61.6458 23.638C61.8034 23.1906 61.8823 22.6814 61.8823 22.1103C61.8823 21.5393 61.8034 21.0301 61.6458 20.5826C61.4924 20.1352 61.2644 19.7815 60.9618 19.5216C60.6593 19.2616 60.2821 19.1316 59.8304 19.1316C59.3745 19.1316 58.9909 19.2616 58.6799 19.5216C58.373 19.7815 58.1408 20.1352 57.9831 20.5826C57.8297 21.0301 57.753 21.5393 57.753 22.1103C57.753 22.6814 57.8297 23.1906 57.9831 23.638C58.1408 24.0855 58.373 24.4392 58.6799 24.6991C58.9909 24.9548 59.3745 25.0826 59.8304 25.0826ZM66.4206 27.0002V17.1821H69.0605V18.8951H69.1628C69.3418 18.2858 69.6422 17.8255 70.0641 17.5144C70.486 17.1991 70.9718 17.0414 71.5215 17.0414C71.6578 17.0414 71.8049 17.05 71.9625 17.067C72.1202 17.0841 72.2587 17.1075 72.378 17.1373V19.5535C72.2502 19.5152 72.0733 19.4811 71.8475 19.4512C71.6216 19.4214 71.415 19.4065 71.2275 19.4065C70.8269 19.4065 70.4689 19.4939 70.1536 19.6686C69.8425 19.839 69.5953 20.0777 69.4121 20.3845C69.2331 20.6913 69.1436 21.045 69.1436 21.4456V27.0002H66.4206ZM77.8033 27.192C76.7933 27.192 75.924 26.9875 75.1953 26.5784C74.4709 26.165 73.9126 25.5812 73.5206 24.8269C73.1286 24.0684 72.9325 23.1714 72.9325 22.1359C72.9325 21.126 73.1286 20.2396 73.5206 19.4768C73.9126 18.714 74.4645 18.1196 75.1761 17.6934C75.892 17.2673 76.7315 17.0542 77.6946 17.0542C78.3423 17.0542 78.9453 17.1586 79.5036 17.3674C80.0661 17.572 80.5561 17.8809 80.9737 18.2943C81.3956 18.7076 81.7237 19.2275 81.9581 19.8539C82.1925 20.4761 82.3097 21.2048 82.3097 22.04V22.7879H74.0192V21.1004H79.7464C79.7464 20.7083 79.6612 20.361 79.4908 20.0585C79.3203 19.7559 79.0838 19.5194 78.7812 19.349C78.483 19.1742 78.1357 19.0869 77.7393 19.0869C77.326 19.0869 76.9595 19.1828 76.6399 19.3745C76.3246 19.562 76.0774 19.8156 75.8984 20.1352C75.7195 20.4505 75.6278 20.8021 75.6236 21.1899V22.7943C75.6236 23.2801 75.7131 23.6998 75.892 24.0535C76.0753 24.4072 76.3331 24.6799 76.6655 24.8717C76.9979 25.0635 77.392 25.1593 77.848 25.1593C78.1506 25.1593 78.4276 25.1167 78.679 25.0315C78.9304 24.9463 79.1456 24.8184 79.3246 24.648C79.5036 24.4775 79.6399 24.2687 79.7337 24.0216L82.2521 24.1877C82.1243 24.7929 81.8622 25.3213 81.4659 25.773C81.0739 26.2204 80.5668 26.5698 79.9446 26.8213C79.3267 27.0684 78.6129 27.192 77.8033 27.192Z" fill="#19191C"/>
<g clip-path="url(#clip0_1_1562)">
<path d="M135.799 19.8997L103 19.8997M135.799 19.8997L127.55 11.6501M135.799 19.8997L127.55 28.1492" stroke="#19191C" stroke-width="2" stroke-linecap="square"/>
</g>
<defs>
<clipPath id="clip0_1_1562">
<rect width="28" height="28" fill="white" transform="matrix(-0.707107 -0.707107 -0.707107 0.707107 140.598 20.0002)"/>
</clipPath>
</defs>
</svg>
